<?xml version='1.0' encoding='utf-8'?>
<svg xmlns="http://www.w3.org/2000/svg" enable-background="new 0 0 1685.79 1673.26" version="1.1" viewBox="0 0 1685.79 1673.26">
		<path d="m1509.8 1634.7c2.174 0.738 4.539 2.044 4.863 1.867 2.697-1.478 1.935-1.84 5.75-1.364v-0.503h-10.613z" fill="none"/>
		<polygon points="1602.4 1186.2 1602.4 1186.2" fill="#007FFF"/>
		<path d="m1520.4 1523.5c-1.195 0.216-2.513 0.27-3.296 0.529-0.96 0.317-10 11.257-15.042 3.847-2.502-3.677-2.287 4.832-6.827 3.953-3.913-0.757-3.016 4.145-3.413 6.624-0.289 1.806 9.444 16.444-1.601 11.112-3.982-1.923-7.965-3.847-11.948-5.769-6.545-3.16-13.343 0.216-20.588-1.71-6.809-1.809-6.491-14.519-13.014-17.416-4.911-2.181-5.23-5.591-9.175-8.975-6.081-5.217-1.413-4.916-11.521-8.655-5.863-2.168-4.412-5.77-11.094-5.77-1.275 0-6.934-5.936-6.934-6.517 0-5.431-1.864-14.517-4.374-19.447-2.562-5.031 1.767-10.44 3.52-14.638 1.202-2.881-0.138-6.964 1.28-9.509 1.494-2.683 2.337-5.333 2.881-8.333 0.867-4.787-0.853-7.103-0.853-11.005 0-2.472 2.55-3.303 2.88-6.197 0.598-5.245 3.094-6.767 3.094-12.395 0-5.659 4.763-5.994 5.014-10.898 0.013-0.261 0.069-0.355 0.32-0.428 6.216-1.798 2.474-3.959 5.334-5.555 4.55-2.541-1.097-3.337-1.387-6.197-0.191-1.893 1.277-3.478 0.533-5.129-1.514-3.358-1.92-3.594-1.92-7.479 0-3.34-1.173-6.394-1.173-9.296 0-1.617 1.65-2.889 0.747-4.702-1.322-2.652-5.014-3.426-5.014-6.838 0-3.498 3.743-3.364 4.48-7.8 0.455-2.733 1.143-8.62 0-10.791-1.49-2.828 1.186-5.024 1.707-7.587 0.308-1.516 0.432-3.926 1.387-5.128 1.612-2.031 2.617-2.82 1.706-5.556-0.982-2.948-4.886-2.958-5.12-6.09-0.103-1.387 0.321-3.542-0.106-4.914-1.005-3.231-0.441-6.547-3.52-8.548-1.2-0.78 0.087-3.219-0.214-4.702-0.346-1.708-3.06-2.614-3.829-4.735l-2.357-6.698-12.375-5.129 2.133-6.838 12.375-4.274 12.161-9.616 16.428-20.087 5.973-8.548 1.92-7.692-5.364-12.631 158.12-23.162-8.953-26.285-17.704-28.1-3.84-19.018-13.442-26.926-16.001-15.599-14.508-7.479-14.508-12.608-5.76-13.89-8.321-11.539-4.053-28.208 1.92-4.701 7.467-13.676-0.853-11.112-5.547-12.181-8.107-27.78-4.694-5.342-3.413-13.889 0.64-16.027 6.614-14.958-0.109-10.044-4.797-27.566-5.23-10.15-6.188-6.945-1.174-14.425 1.601-12.394-2.034-20.46c-0.034-1.407 0.089-2.827-0.1-4.222-0.163-1.204-0.572-2.462 0.107-3.526 0.442-0.694 0.966-1.361 1.066-2.137 0.235-1.823-7e-3 -3.719 0.321-5.663 0.262-1.558 0.566-2.986 1.066-4.487 0.681-2.044-0.245-4.442-0.853-6.41-2.008-6.492-10.258-3.762-11.414-10.471-0.856-4.965-3.256-7.57-7.574-9.509-2.942-1.321 2.12-4.39 1.707-6.197-0.989-4.324-7.908-2.211-10.241-5.877-0.332-0.522-0.656-1.468-0.956-2.629l-654.93 392.96 53.791 0.018c2.708 4.307 6.362 7.522 6.739 13.318 0.422 6.482-1.047 12.192-2.027 18.591-0.898 5.868-13.128 24.806-5.333 30.451 3.353 2.428 2.907 3.361 3.2 7.266 0.134 1.804 2.422 3.191 3.413 4.808 2.476 4.041 2.027 7.297 5.12 11.218 1.055 1.337 2.56 15.689 2.56 18.378 0 2.531-1.653 4.276-0.426 6.731 1.319 2.642-2.491 7.01-2.774 10.578-0.66 8.305-3.536 17.365-5.547 25.429-1.789 7.17 3.302 26.166-1.387 30.879-3.902 3.923 0.851 5.964 1.174 10.257 0.448 5.965 3.2 11.289 4.694 16.348 1.382 4.678 7.844 5.922 8.747 8.441 0.807 2.249 1.796 7.604 4.801 7.907 8.67 0.878 7.807 3.381 10.56 11.004 1.805 4.999 2.822 7.828 3.308 13.784 0.747 9.176 10.873 13.631 5.867 25.001-3.291 7.475 11.319 23.195 2.56 28.422-3.678 2.195-10.516 0.298-11.735 5.555-1.68 7.247 5.7 14.121 6.187 20.621 0.342 4.557 0.427 9.506 0.427 14.104l4.48-0.642c5.15-8.913 12.592-4.907 16.322-14.103 2.83-6.974 11.335-1.142 15.787 0.641 7.539 3.018 7.86-0.266 13.761-2.884 2.618-1.162 6.794 3.235 9.707 3.846 7.216 1.515 13.07-3.133 19.522-1.71 4.639 1.024 11.736-6.552 16.641-8.334 3.499-0.158 6.732-1.958 10.455-1.282 5.111 0.927 10.011 4.06 15.147 4.06 3.347 0 5.706-0.538 9.068 0.107 4.019 0.772 9.905-1.035 11.948-4.702 1.245-2.237-0.039-6.838 4.266-6.838l3.947 0.961c0.796 0.071 2.673 0.946 3.521 1.282 0.913 0.363 2.012 0.473 2.773 1.175 1.861 1.716 0.473 3.515 1.601 5.342 0.517 0.841 1.018 2.447 1.387 3.42 0.464 1.227 1.357 2.3 2.773 1.282 2.425-1.745 2.534 1e-3 4.588 1.175 16.531 0 7.251 10.353 12.587 12.715 1.57 0.696 1.162 4.041 0.854 5.341-0.427 1.8-3.097 7.998-4.694 8.655-1.031 0.422-4.181 1.882-4.48 2.779 2.148 0.704 4.984 0.784 7.574 1.282 5.116 0.982 3.508 5.439 9.601 5.128 2.146-0.109 4.654-2.581 6.4-1.282 2.438 1.814 2.771-3.777 5.334-4.701 4.012-1.449 3.905-4.603 8.961-5.877 0-3.975 4.732-1.566 7.681-2.137 3.245-0.628 3.981-3.205 8.214-3.205 8.04 0 18.195-0.728 25.922-2.779 3.548-0.941 10.447-8.823 9.067-0.747 0 0.911-2.066 3.816-0.213 4.273 0 0.391-0.107 0.709-0.107 0.962-1.045 0.263-2.909 1-3.52 1.816 0.639 0.858 1.28 2.048 1.28 3.206 1.352 0.448-2.773 1.944-2.773 2.671 0 1.041 0.788 3.377 1.173 4.488 0.823 2.376 3.864 5.382 1.707 7.373-2.795 2.578 5e-3 1.643 0.533 3.953 2.708 11.825 14.508 7.183 14.508 17.523 0 5.656 10.802-3.683 13.548-2.457 3.779 1.686 2.243 8.12 9.067 8.12 3.761 0 11.079-3.043 11.414 1.068 0.449 5.523 7.574 1.07 7.574 9.082 9.574 0 18.851-2.038 26.456 1.068 2.693 1.1 6.98-1.609 8.748-3.525 6.81-2.489 6.459 5.409 11.734 5.876l15.682 1.389c3.777 0.335 1.395-5.841 5.44-3.098 3.914 2.652 8.377 3.117 10.668-2.03 0.958-2.154 3.84-0.313 3.84-2.03 0-3.922 0.548-2.896 2.987-5.342 1.79-1.797 0.747-6.098 0.747-8.548 0-4.228 4.757-1.859 3.2-6.196-1.885-5.253-3.754-6.16 2.56-7.373 2.39-0.459 11.499-2.709 11.734 0.427 0.287 3.834 0.408 13.227 2.987 15.813 3.259 3.266 16.204 7.997 17.388 10.899 1.2 2.936-0.307 9.273 0.961 11.432 0.933 1.59 2.538 1.605 3.307 3.847 1.665 2.853 1.466 5.528 3.414 8.334 1.185 1.709 3.481 1.168 4.694 2.243 4.175 3.702-3.059 4.896 6.507 6.732 8.376 1.607 18.995-15.116 22.616-0.534 3.039 12.236 5.808 0.865 10.881 6.624 1.003 1.14 3.452 11.464 6.507 3.954 1.625-3.996 6.775-1.279 9.921 0.427l11.627 6.304c3.015 1.635 0.64 2.521 1.92 4.702 1.336 2.276 4.504 3.335 6.294 5.236 8.943 9.493-7.208 4.033-2.454 13.035 1.047 1.982 8.073 12.822 8.854 12.822l3.521-7.159c1.235 0 1.796 0.077 2.88 0.749 0.477 0.296 2.463 2.133 1.92 2.351 6.452 5.709 11.627 8.871 11.627 17.736 0 7.093 7.035 8.394 8.748 13.569 0.864 2.609 1.201 11.314 3.307 12.608 3.85 2.366 0.786 0.899 2.241 4.167 1.201 2.702 6.605-1.286 8.108-2.244 8.241-5.264 4.73 9.27 14.615 0.534 7.477-6.61 13.762-3.128 21.655-11.967 6.776-7.587 8.75 1.086 12.054-1.603 0.91-0.74 1.24 11.219-4.161 11.219 0.311 1.256 2.113 5.983 3.413 5.983 0.65 0 1.454 0.202 2.285 0.484h10.613v-111.28z" fill="#007FFF"/>
		<path d="m1561.9 158.62c-12.611 0-5.562-5.896-11.627-11.112-3.601-3.096-10.155-5.005-12.481-9.402-2.077-3.927-4.496-13.169-9.707-13.463-12.031-0.679-7.601-9.169-5.974-17.416 2.016-0.498-5.427-3.051-6.507-3.206-0.066-0.269-0.046-0.175-0.32-0.213-1.147-4.568-14.009-5.983-17.708-5.983-3.852 0-0.319-4.216-5.334-2.351-1.117 3.08 1.613 5.721 1.067 7.693-0.619 2.231-2.654 2.866-3.307 5.342-1.367 5.189-7.147 4.471-7.147 9.616 0 4.777-5.451 2.564-7.788 2.564-0.034 0.104-0.217 0.286-0.32 0.32 0 3.517-3.425 5.075-5.654 2.244l-4.374-5.556c-0.322-1.3-4.211 1.763-4.8-1.282-0.184-0.953-1.851-3.13-2.774-3.312-2.02-4.04-18.425 4.801-21.868-7.265-5.992 0-6.365 9.393-10.455 11.218l-11.734 5.236c-4.404 1.965-2.555 3.631-4.907 5.983-2.991 2.991-9.179 1.026-10.347-2.779-1.632-5.31-8.33-0.257-13.441-2.67-6.914-3.464 1.845-7.912-8.214-5.984-6.672 1.277-3.07-9.03-5.76-10.684-0.554-0.34-7.289-0.938-7.468-0.534-2.7 6.097-6.185-0.553-9.174-2.565-3.333-2.242-4.834-9.681-3.84-13.569 0.841-3.285-4.061-5.133-6.294-6.624-3.968-2.651-3.24-6.243-9.388-5.45-6.423 0.829-7.164-2.049-8.427-7.265-1.172-0.585-2.109-2.022-2.987-2.992-0.627-0.693-0.763-0.897-0.775-1.289-0.427-0.605-1.191-1.573-1.678-2.13-0.79-0.904-2.043-2.459-3.2-2.779-1.127-0.312-2.35-0.553-3.413-0.961-2.744-1.054-4.871 0.534-7.574-1.496-3.89-2.922-9.559-6.384-14.508-6.304-2.901 0.047-9.277 2.692-11.627 4.594-2.867 2.32-3.787 7.527-5.547 8.654-4.093 2.619-9.884-4.908-14.828-3.739-3.991 0.944-8.671 0.038-11.841 1.068-1.969 0.64-3.517 3.633-6.081 2.779-6.641-2.213-4.502-9.449-14.401-8.121-4.987 0.67-5.07-2.212-7.787-4.914-9.061-9.013-13 3.977-20.162-2.457-1.871-1.681-2.473 2.286-3.307 2.992-0.957 0.808-12.771-1.615-13.121-2.03-1.868-2.216 0.014-5.582-4.374-2.992-1.704 1.006-4.461-7.314-6.827-6.197-7.782 3.672-5.863-10.454-11.414-2.992-0.618 0.831-9.69 1.799-10.667 1.496-2.812-0.875-5.233 6.782-6.508 9.189-3.413 6.443 3.611 5.679 1.707 9.722-1.429 3.035-2.504 4.309-5.654 6.091-5.266 2.978-7.255 2.161-12.48 2.564-1.892 0.145-2.522 3.611-4.374 4.701-2.573 1.516-5.54-1.635-7.681-2.457-3.119-1.199-25.691 10.605-28.163 5.022-0.644-1.455 0.923-2.45-0.747-3.847-1.972-1.649-7.3-5.047-8.533-6.838-3.969-5.765-9.851-1.325-12.695-3.526-4.372-3.385-0.625 5.898-0.854 5.983-7.364 2.724-9.313 5.417-16.214 6.624-1.47 0.257-3.662 4.65-5.227 3.847-1.316-0.676-1.829-2.096-3.414-0.855-4.211 3.297-8.541 0.732-12.267 4.274-5.448 5.179-2.037 3.739-9.494 3.739-4.501 0-16.225 4.012-20.375 6.197-3.888 2.047-8.107 3.523-11.308 6.945-5.545 5.928-14.352 5.091-17.494-1.068-1.359-2.664-4.173-4.2-5.867-4.808-3.481-1.248-6.047 2.79-10.348 1.068-3.882-1.554-10.304-17.271-14.721-7.479-3.654 8.103-4.228 4.639-10.347 9.403-3.203 2.493-2.45 9.568-4.267 13.462-3.006 6.443-4.491 1.624-8.534 4.167-2.702 1.7 0 5.589 0 7.906 0 4.098-5.229 4.47-5.441 7.8-0.48 7.539-3.337 11.513-7.429 13.245-9.005 3.813-24.001-3.212-32.894-6.94-0.584-0.244-1.192-0.443-1.817-0.601-4.378-1.108-9.803 0.386-14.184-0.895-3.906-1.141-10.583-4.724-14.615-5.342-5.815-0.893-7.814 3.699-12.908 4.487-6.725 1.041-21.777-7.397-24.535-5.877-7.518 4.145-9.206 0.224-14.721-4.167-5.631-4.483-14.71-8.666-22.403-5.449-5.418 2.266-10.125 1.388-16.108 1.388-8.126 0-7.615-4.382-12.588-8.868-1.089-0.982-2.56-2.161-2.56-3.74v-2.992c0-2.578-1.579-3.716-3.2-5.342-1.365-1.369-1.755-3.37-2.773-5.128-3.14-5.425-6.504-4.018-11.414-6.624-3.552-1.885-4.089-5.288-7.681-7.373-5.049-2.931-19.284-6.304-22.082-10.044-3.055-4.083-7.814-9.522-13.121-10.577-7.256-1.443-17.82-0.985-25.068 0.534-3.942 0.825-19.471 11.909-20.589 15.599-0.061 0.202-0.112 0.279-0.32 0.32-5.705 1.152-6.697-0.082-9.814 5.556-3.333 6.03-6.103 12.733-10.668 17.736-3.647 3.997-7.976 7.09-11.095 11.86-7.254 11.093-4.086 14.211-18.988 14.211-7.546 0-5.708 3.959-1.387 8.654 4.302 4.674 6.982 18.827 5.014 24.788-3.384 10.245-0.688 18.961-0.534 29.276 0.044 2.926 0.09 5.854 0.133 8.782 0.098 6.439 0.196 12.88 0.294 19.319 0.115 7.583-0.669 9.574-4.48 15.493-0.357 0.556-1.256 0.695-1.814 0.961-0.318 0.152-0.239 0.058-0.427 0.32-1.118 1.557-2.038 2.588-2.56 4.487-1.25 7.519-6.491 16.576-9.387 23.827-3.588 8.983-6.868 14.964-14.615 20.728-3.217 2.394-1.677 11.078-6.081 14.531-7.937 6.225-5.248 11.244-8.321 19.553-1.606 4.343 0.956 6.53 2.133 10.363 0.612 1.995-1.635 5.777-2.56 7.373-2.721 4.695-1.052 13.804 0.854 18.591 1.952 4.905 1.311 7.051-0.534 11.86-2.174 5.666-5.653 10.578-7.894 16.562-1.602 4.274-1.97 13.611-4.906 16.775-2.557 2.755-5.09 5.844-5.974 9.616-1.875 7.991 1.92 14.438 1.92 21.69 0 5.996 2.146 10.167 2.881 15.706 0.425 3.204 3.129 3.736 4.053 6.838 1.515 5.086 2.603 8.844-0.853 13.462-2.547 3.404-6.125 4.875-8.535 7.907-5.748 7.231-7.147 14.498-7.147 23.613 0 6.39-6.325 9.345-7.254 14.744-0.977 5.679 7.596 12.153 3.947 19.019-1.832 3.446-0.015 7.808-0.022 11.712-2.139 2.795-4.612 5.103-7.125 7.093-4.289 3.396-9.329 5.972-13.655 9.723-3.497 3.034-4.932 7.95-7.147 11.967-5.93 10.752-12.189 9.652-22.722 11.86-7.654 1.604-10.522 4.266-16.321 9.295-1.73 1.501-3.599 3.459-5.47 5.655-4.786 5.613-10.301 12.489-12.344 17.958-2.332 6.243-4.215 13.13-7.558 19.611-7.63 14.791-19.228 28.539-31.912 37.017-6.27 4.19-4.146 18.315-2.668 24.574 0.978 4.141 4.063 14.568 3.308 18.484-0.849 4.397-2.541 8.418-3.414 12.822-1.281 6.462-1.824 10.414-1.6 17.202 0.153 4.623-1.124 8.553-0.214 13.035 0.507 2.497-0.811 9.012 2.134 12.501 3.567 4.226-5.461 17.478-9.601 21.262-3.992 3.65-10.283 17.424-12.481 22.865-1.814 4.487-1.524 10.62-5.441 13.462-4.966 3.603-13.737 0.909-19.948 1.923-6.204 1.013-7.956 2.622-10.347 8.334-0.792 1.892-1.077 2.986-1.143 3.975-0.086 1.272 0.183 2.375 0.183 4.787 0 6.754-1.94 11.43-10.134 10.577-3.348-0.348-4.633-2.229-6.758-2.313-0.831-0.032-1.793 0.209-3.056 0.925-1.624 0.919-5.541 2.579-6.614 3.953-2.151 2.753-3.788 7.296-6.614 9.189-5.249 3.517-10.553 11.199-14.934 15.92-3.457 3.725-8.215 15.211-11.628 16.881-3.058 1.496-6.117 2.993-9.174 4.488-4.667 2.283-9.313-1.04-13.228-2.992-4.155-2.07-7.385 0.068-10.825 2.272-0.735 0.474-0.5 0.179-0.456-0.566l1.147-19.229c-1.6-1.543-4.16-3.896-4.16-5.983-0.206-0.102-0.176-0.259-0.427-0.32 0-0.388-0.32-0.489-0.32-0.855-0.209-0.071-0.403-1.502 0-1.603 0.062-0.244 0.157-0.143 0.214-0.32 2.452 0 9.494-7.196 9.494-9.936-1.423-0.351-2.346-2.536-3.734-2.885-0.081-0.328-0.665-0.418-0.747-0.747-0.345-0.067-0.296-0.252-0.64-0.32 0-0.32-0.109-0.364-0.427-0.428-0.746-3.008-0.32-4.602-0.32-7.906-1.435-0.475-2.773 0.392-2.773 2.137-2.218 0.55-4.944 0.095-7.147 0.641 0 6.516-10.298 5.633-13.868 6.518 0 1.922-6.139-0.023-8.427 2.565-2.418 2.737-7.766 11.339-12.801 6.304-4.352-4.352-2.266-7.766-10.348-5.77-0.723 2.93 0.059 16.898-3.626 17.629-0.045 0.178-0.072 0.274-0.214 0.321v0.641c3.359 0.832 2.639 3.311-0.32 3.953-2.519 0.546 0.543 2.818 0 5.022-3.047 0.755-3.944-1.812-6.081-1.283-1.662 6.735-1.6 4.598-6.614 1.924-1.026-1.799-1.344-1.556-2.881-1.175 0 2.455-1.435 4.002-2.454 6.09-0.856 1.755-3.763 3.956-4.16 5.556-0.241 0-0.812 0.212-1.067 0.32-0.26-0.783-3.734-1.093-3.734-2.03 0-8.317-8.042-9.32-13.975-13.676-2.889-2.122-3.461-5.995-5.227-8.654-1.131-1.701-1.816-1.816-3.84-1.816-1.387 0 0.32 3.762 0.32 4.381l-1.067 3.098-4.161 2.138c-3.335 1.858-6.805 0.57-9.707 2.671-2.78 2.014-6.191 2.714-8.64 5.449-1.445 1.612-2.51 5.421-4.374 6.41-3.135 1.663-2.469 5.149-4.801 6.838-4.014 2.906-7.144-1.852-9.067 3.74-1.29 3.753-8.499 6.838-12.694 6.838 0 3.024 4.127 4.355 5.974 5.983l-0.96 49.148-19.522 0.32-6.834 5.461 0.54 0.31c7.653 9.054 11.111 19.873 24.322 19.873 0.562 0 0.867 0.202 0.987 0.515 3.249-0.966 10.862-3.516 14.054-2.972 11.514 1.966 12.143-9.597 21.336-7.159 4.054 1.075 5.639-2.91 8.854-4.487 2.93-1.438 4.632 1.259 7.147 2.03 4.81 1.475 8.518-5.471 14.508-0.641 4.768 3.846 8.605 0.024 12.085-3.633 3.9 0.297 5.937 0.559 8.397 3.312 1.213 1.359 2.585-0.529 4.267-0.855 6.082-1.178 12.902 0.747 19.095 0.747 6.839 0 12.919-2.088 19.888-2.642l1374.2-824.49c-1.403-1.043-3.011-1.879-4.594-1.879z" fill="#007FFF"/>
		<path d="m1443 701.2l-0.742-1.624c0-4.576 4.359-6.084 7.254-8.761 1.003-0.927 1.576-1.989 2.347-2.992 0.595-0.776 0.452-3.193 2.347-2.779 2.708 0.592 4.193 0.499 6.614-1.282 2.808-2.067 4.169-5.854 5.12-9.189 2.843-7.603-1.006-13.298-2.133-20.301-1.09-6.772 3.797-10.517 7.147-15.599 1.978-3.002 2.813-8.561 5.227-10.471 4.644-3.672 5.194-9.723 11.308-9.723 4.044 0 5.889-2.825 7.681-5.876 2.779-4.735 3.807-2.508 7.894-4.487 0-3.406 0.059-6.487-0.051-9.5l-806.96 484.18 23.912 0.04 2.133-7.159 24.642-0.213-7.041 18.163v13.037l49.879 0.016 654.93-392.96c-1.034-3.994-1.777-10.667-1.503-12.521z" fill="#F7D618"/>
		<path d="m555.89 1169.7c3.607-1.117 3.818-2.138 8.321-2.138l5.868 0.322 0.32-6.732 19.841-0.107 2.56 6.41h47.897c-0.603-3.535-1.493-7.35-1.493-10.898 0-4.505 3.84-7.862 3.84-12.501 0-2.088-3.084-12.259-2.241-12.822l8.108-0.107c1.296-2.596 2.222-4.558 4.693-6.09 2.547-1.579 0.439-7.01-0.427-9.296-0.508-1.339-0.542-4.264-0.525-6.913l-100.29 60.175c1.145 0.657 2.334 1.067 3.529 0.697z" fill="#F7D618"/>
		<path d="m1616.7 200.6c0-5.023-0.735-3.925-4.907-4.914-4.55 0-3.094-2.54-3.094-5.45 0-3.641-3.605-1.994-4.266-4.38-0.575-2.076 0.379-3.537-2.347-4.06-4.366-0.838-2.713 5.352-6.827 3.526-3.57-1.584-7.039 2.893-9.707-0.748-1.567-2.139-0.515-4.82 0.321-7.051 4.109-15.145-8.996-7.469-10.561-13.783h-0.213c-0.054-0.214-3.428 1.592-6.294-1.283-0.639-0.641-1.401-1.339-2.235-1.963l-1374.2 824.49c1.064-0.085 2.148-0.136 3.26-0.136 3.633 0 7.156-1.609 9.494 1.282 3.046 3.765 4.103-0.107 6.827-0.107 1.532 4.622 29.947 3.198 33.923 1.389l10.881-0.642 66.23-0.156 1286.8-772.11c2.43-4.466 6.824-8.418 6.824-13.908z" fill="#F7D618"/>
		<path d="m1501.8 588.88c-0.546-2.302-0.843-15.925 1.387-16.668 0-2.144-0.626-2.82-1.067-4.167l0.107-0.107c0.729 0 1.484-0.214 2.24-0.214 0.068-0.276 0.064-0.277 0.32-0.32 1.158-5.854-0.199-12.44 1.387-18.164 0.444-1.601 2.454-3.984 2.454-5.449 0-2.805-1.156-2.48 0.107-5.769 1.354-3.528-0.541-6.096-0.213-9.509l5.12-25.963c0-3.41 1.493-6.368 1.493-9.509 0-2.704-2.677-4.677-1.28-7.479 0.837-1.677 0.649-4.429 1.814-5.877 1.849-2.3 5.29-1.645 6.615-3.633 1.145-1.719 0.75-3.785 1.493-5.769 2.737-8.923 4.017-13.539 10.241-20.301 1.438-1.562 1.413-4.444 1.174-6.411-0.419-3.454-1.174-6.098-1.174-9.722 0-4.675 0.776-9.791 0.597-14.76 3.281-1.72 7.122-3.083 10.284-3.083 4.157 0 4.078 0.425 5.867-3.633 0.969-2.2 3.897-1.957 5.228-3.953 0.987-1.482 1.73-2.975 0.213-4.381-1.649-1.528 2.454-4.764 2.454-6.411 0-2.122-0.338-6.895 3.52-5.555 0.355 0.124 0.073 0.683 0.32 0.855 0.504 0.349 2.204 1.92 2.987 0.641 0.824-1.346-0.231-3.633 2.453-3.633 1.477 0 3.057 0.792 4.801 0.534 1.303-0.193 2.482-0.892 3.724-1.337l22.518-25.053 26.456-21.903 23.469-30.452-9.601-6.945c-1.62-2.02-0.395-4.769-0.961-7.051-3.293-0.83-6.116 3.096-8.533 0.427-2.302-2.542-1.645-5.062-4.267-7.693-1.891-1.899-4.412-1.016-6.721-1.816-3.292-1.14-0.349 5.769-3.947 5.769-5.568 0-4.969-5.095-7.574-8.013-1.443-1.615-4.577-0.243-6.614-0.748-0.271-1.923-0.26-3.797 0.107-5.769 0.172-0.931-0.266-6.678-0.107-6.732 0-0.416 0.345-0.606 0.427-0.855 2.254-0.559 3.872-4.739 4.48-6.624 1.233-3.82 1.318-4.881 3.626-8.12 6.64-6.64 0.199-14.26-2.986-20.087-3.622-6.622 0.291-16.654 3.52-22.759 0.035-0.065 0.074-0.13 0.109-0.195l-1286.8 772.1 70.102-0.165c2.327-1.301 5.427-1.036 7.894-0.213l3.43 0.509c0.528 1.203 0.944 2.533 0.944 4.726 0 2.238 1.118 7.705 2.987 9.83 2.467 2.805 10.668 7.477 8.534 11.326-2.045 3.686 1.769 9.753-2.027 13.036-3.233 2.797 0.664 8.466 1.493 13.462 0.148 0.89 2.558 1.906 2.987 2.885 0.231 0.528-0.602 2.295-0.64 2.671-0.354 3.516 2.027 7.162 2.027 11.325 0 3.299 2.722 2.264 3.521 4.809 0.928 2.958 1.808 2.747 2.346 6.41 1.132 7.705 3.394 3.12 5.014 5.983 0.599 1.059 0.641 6.917 0.747 8.228 0.307 3.778 2.784 4.058 4.801 6.304 2.715 3.024-2.109 3.098-2.774 4.06-1.241 1.794 1.814 3.787 1.814 6.411 0 1.448 0.359 4.204 1.388 5.663 1.478 2.097 11.268 7.19 12.374 9.616 2.088 4.581 2.63 2.949 5.654 5.342 1.321 1.045-2.896 3.048-1.28 4.061 4.396 2.754 2.635 5.048 4.8 8.547 2.61 4.219 5.923 1.797 5.974 8.014 0 0.055 0.218 0.562 0.32 0.641 0.158 0.123 0.036 0.121 0.214 0.214 0.465 0.244 0.823 0.692 1.173 0.961 0.201 0.155 0.355 0.582 0.534 0.748 0.158 0.147 0.427 1.101 0.427 1.176 0.07 6.647 4.065 3.659 5.014 7.372 0.782 3.063 7.81 4.62 5.867 8.121-1.354 2.439-1.085 4.041 1.707 4.7 2.127 0.502 1.387 2.001 1.387 3.312 0 1.465 4.319 2.143 2.987 4.809-0.74 1.481-1.507 2.094-1.397 3.321l6.414 3.945c4.882-0.838 7.924-2.671 12.801-2.671 3.58 0 3.993 2.365 7.361-0.427 2.613-2.165 13.54 0.427 17.601 0.427 1.441 0 4.551 0.613 5.867 0.107 0.381-0.146 0.213-2.969 0.213-3.739 0-0.766 1.909-0.855 2.56-0.855 3.831 0 6.247-7.596 12.054-5.235 1.262 0.513 2.671 1.77 4.152 2.617l100.29-60.175c0.01-1.602 0.038-3.104-8e-3 -4.092-0.213-4.535-1.446-8.912 2.134-12.5 3.548-3.557-0.393-6.368 1.174-9.509l40.092 0.067 806.96-484.18c-0.122-3.221-0.434-6.364-1.234-9.734z" fill="#CE1021"/>
	<polygon points="552.36 385.39 669.36 385.39 705.57 268.4 741.78 385.39 858.78 385.39 764.07 457.82 800.28 574.82 705.57 502.39 610.86 574.82 647.07 457.82" fill="#F7D618"/>
</svg>